<svg width="461" height="460" viewBox="0 0 461 460" fill="none" xmlns="http://www.w3.org/2000/svg">
<g filter="url(#filter0_b_111_2)">
<rect x="10.4545" y="10" width="440" height="440" rx="220" fill="#25272B"/>
<g style="mix-blend-mode:lighten">
<path fill-rule="evenodd" clip-rule="evenodd" d="M121.571 124.874C120.382 126.063 119.722 127.651 119.722 129.336C119.722 130.356 120.033 131.3 120.491 132.183C123.115 129.238 125.858 126.413 128.705 123.685C126.36 122.583 123.502 122.938 121.571 124.874ZM355.909 230C355.909 160.825 299.635 104.545 230.455 104.545C161.28 104.545 105 160.825 105 230L104.995 387.909C139.467 415.356 183.065 431.818 230.455 431.818C266.776 431.818 300.856 422.125 330.333 405.254C330.32 405.199 330.305 405.145 330.29 405.091C330.248 404.941 330.207 404.791 330.207 404.627V373.716C330.207 372.211 331.429 370.989 332.935 370.989C334.44 370.989 335.662 372.211 335.662 373.716V402.151C342.715 397.82 349.456 393.047 355.909 387.914V230ZM332.296 123.767C335.155 126.511 337.915 129.358 340.544 132.32C341.847 129.92 341.58 126.898 339.556 124.874C337.587 122.9 334.664 122.583 332.296 123.767ZM419.138 301.514H389.635C387.905 306.642 386.335 312.091 384.949 317.878H412.107C414.693 312.549 417.022 307.083 419.138 301.514ZM387.889 356.06H379.042C378.753 359.671 378.529 363.347 378.376 367.094C381.676 363.538 384.845 359.851 387.889 356.06ZM382.615 328.787C381.622 334.029 380.798 339.494 380.116 345.151H396.055C399.736 339.871 403.167 334.411 406.342 328.787H382.615ZM410.896 262.727H429.578C430.096 259.585 430.527 256.422 430.893 253.225C430.707 253.212 430.52 253.189 430.334 253.165C430.055 253.13 429.776 253.094 429.502 253.094C423.311 253.094 416.951 256.503 410.896 262.727ZM427.467 273.636H402.431C399.333 278.513 396.425 284.223 393.742 290.605H422.962C424.713 285.053 426.196 279.385 427.467 273.636ZM230.455 28.1816C119.171 28.1816 28.6364 118.716 28.6364 230C28.6364 283.231 49.3854 331.683 83.1763 367.782L83.1818 230C83.1818 200.513 91.9254 173.049 106.909 149.993L106.145 149.229C100.833 143.922 97.9036 136.858 97.9036 129.342C97.9036 121.825 100.833 114.762 106.145 109.449C117.109 98.4798 134.956 98.4798 145.92 109.449L145.958 109.487C169.898 92.6489 199.031 82.7271 230.455 82.7271C261.933 82.7271 291.109 92.6871 315.076 109.569L315.202 109.443C326.165 98.4744 344.018 98.4744 354.982 109.443C365.951 120.413 365.951 138.254 354.982 149.223L354.087 150.123C369.016 173.153 377.727 200.567 377.727 230V272.627C390.78 246.794 408.889 231.276 429.502 231.276C430.068 231.276 430.629 231.336 431.19 231.397C431.538 231.434 431.886 231.471 432.234 231.494C432.237 231.266 432.245 231.04 432.253 230.813C432.263 230.543 432.273 230.273 432.273 230C432.273 118.716 341.738 28.1816 230.455 28.1816ZM171.627 249.909C171.672 250.015 171.736 250.107 171.799 250.2L171.799 250.2C171.844 250.265 171.889 250.33 171.927 250.4C176.629 261.456 183.736 271.165 192.851 278.469C200.013 306.064 214.173 324.32 230.787 324.32C247.555 324.32 261.824 305.725 268.925 277.7C285.535 263.9 295.451 242.114 295.451 218.742C295.451 178.324 266.291 145.444 230.449 145.444C194.607 145.444 165.447 178.324 165.447 218.742C165.447 229.498 167.64 239.878 171.507 249.358C171.538 249.447 171.549 249.534 171.561 249.62C171.574 249.719 171.586 249.816 171.627 249.909ZM184.085 250.667C185.471 250.138 186.867 249.658 188.269 249.189C188.487 252.484 188.765 255.724 189.153 258.876C187.26 256.291 185.575 253.547 184.085 250.667ZM199.02 246.025C207.6 243.914 216.393 242.687 225.338 242.344V312.102C212.973 306.271 200.836 281.284 199.02 246.025ZM236.253 312.107V242.365C245.193 242.747 253.985 244.018 262.56 246.173C260.716 281.349 248.596 306.276 236.253 312.107ZM272.558 257.736C272.869 255.014 273.125 252.233 273.316 249.407C274.489 249.816 275.662 250.231 276.829 250.667C275.553 253.133 274.124 255.489 272.558 257.736ZM230.455 156.364C260.28 156.364 284.547 184.351 284.547 218.753C284.547 226.345 283.32 233.725 281.084 240.631C266.722 235.149 251.695 232.073 236.247 231.456V202.362C248.695 200.665 258.065 193.285 258.065 184.438C258.065 174.336 245.853 166.144 230.793 166.144C215.733 166.144 203.52 174.336 203.52 184.438C203.52 193.285 212.891 200.665 225.338 202.362V231.445C209.651 231.996 194.389 235.073 179.825 240.631C177.584 233.731 176.362 226.351 176.362 218.758C176.362 184.351 200.629 156.364 230.455 156.364ZM305.799 161.818C309.564 161.818 312.617 158.766 312.617 155C312.617 151.234 309.564 148.182 305.799 148.182C302.033 148.182 298.981 151.234 298.981 155C298.981 158.766 302.033 161.818 305.799 161.818ZM135.207 253.531C135.207 255.036 133.985 256.258 132.48 256.258C130.974 256.258 129.753 255.042 129.753 253.531V222.625C129.753 221.12 130.974 219.898 132.48 219.898C133.985 219.898 135.207 221.12 135.207 222.625V253.531ZM131.379 345.516C131.379 347.022 130.157 348.244 128.651 348.244C127.146 348.244 125.924 347.022 125.924 345.516V314.605C125.924 313.1 127.146 311.878 128.651 311.878C130.157 311.878 131.379 313.1 131.379 314.605V345.516ZM150.889 412.787C152.395 412.787 153.616 411.566 153.616 410.06V379.149C153.616 377.644 152.395 376.422 150.889 376.422C149.384 376.422 148.162 377.644 148.162 379.149V410.06C148.162 411.566 149.384 412.787 150.889 412.787ZM182.253 332.786C182.253 331.28 183.475 330.058 184.98 330.058C186.486 330.058 187.707 331.275 187.707 332.786V363.696C187.707 365.202 186.486 366.424 184.98 366.424C183.475 366.424 182.253 365.202 182.253 363.696V332.786ZM232.707 370.994C231.202 370.994 229.98 372.216 229.98 373.722V404.632C229.98 406.138 231.202 407.36 232.707 407.36C234.213 407.36 235.435 406.138 235.435 404.632V373.722C235.429 372.211 234.207 370.994 232.707 370.994ZM277.707 384.604C277.707 383.098 278.929 381.876 280.435 381.876C281.94 381.876 283.162 383.093 283.162 384.604V415.515C283.162 417.02 281.94 418.242 280.435 418.242C278.929 418.242 277.707 417.02 277.707 415.515V384.604ZM291.344 314.605V345.516C291.344 347.022 292.566 348.244 294.071 348.244C295.576 348.244 296.798 347.022 296.798 345.516V314.605C296.798 313.1 295.576 311.878 294.071 311.878C292.566 311.878 291.344 313.095 291.344 314.605ZM326.799 290.971C326.799 292.476 325.577 293.698 324.071 293.698C322.566 293.698 321.344 292.476 321.344 290.971V260.065C321.344 258.56 322.566 257.338 324.071 257.338C325.577 257.338 326.799 258.56 326.799 260.065V290.971ZM162.611 155C162.611 158.766 159.559 161.818 155.793 161.818C152.027 161.818 148.975 158.766 148.975 155C148.975 151.234 152.027 148.182 155.793 148.182C159.559 148.182 162.611 151.234 162.611 155Z" fill="url(#paint0_linear_111_2)"/>
</g>
</g>
<defs>
<filter id="filter0_b_111_2" x="7.54544" y="7.09091" width="445.818" height="445.818" filterUnits="userSpaceOnUse" color-interpolation-filters="sRGB">
<feFlood flood-opacity="0" result="BackgroundImageFix"/>
<feGaussianBlur in="BackgroundImage" stdDeviation="1.45455"/>
<feComposite in2="SourceAlpha" operator="in" result="effect1_backgroundBlur_111_2"/>
<feBlend mode="normal" in="SourceGraphic" in2="effect1_backgroundBlur_111_2" result="shape"/>
</filter>
<linearGradient id="paint0_linear_111_2" x1="86.3001" y1="366.61" x2="376.788" y2="-19.7699" gradientUnits="userSpaceOnUse">
<stop stop-color="#FF55EC"/>
<stop offset="1" stop-color="#0049E9"/>
</linearGradient>
</defs>
</svg>
